<svg width="331" height="354" viewBox="0 0 331 354" fill="none" xmlns="http://www.w3.org/2000/svg">
<rect width="330.235" height="353.671" rx="165.117" fill="white"/>
<path d="M182.617 48.1713C183.463 48.1812 184.308 48.1005 185.137 47.9305C185.946 47.8171 186.694 47.4356 187.26 46.8472C187.479 46.5351 187.596 46.1633 187.596 45.7824C187.596 45.4014 187.479 45.0297 187.26 44.7176C186.805 44.0634 186.156 43.5684 185.404 43.3022C183.849 42.7288 182.181 42.5259 180.533 42.7097C179.712 42.7852 178.901 42.9531 178.117 43.2102C177.341 43.4778 176.603 43.845 175.922 44.3024C175.218 44.7513 174.553 45.2707 173.837 45.766C173.114 46.3095 172.276 46.6794 171.387 46.8471C170.488 46.958 169.575 46.8303 168.742 46.4769C168.334 46.3219 167.935 46.1436 167.547 45.9429L166.423 45.3161C165.337 44.67 164.127 44.262 162.872 44.1191C161.617 43.9762 160.345 44.1017 159.142 44.4872C158.739 44.6124 158.344 44.759 157.956 44.9264L157.373 45.1824C157.166 45.29 156.945 45.3685 156.716 45.4157C156.682 45.4207 156.648 45.4121 156.62 45.3918C156.593 45.3715 156.575 45.3412 156.57 45.3075L156.57 45.3059L156.567 45.2891C156.325 43.4934 156.269 41.6774 156.402 39.8702C156.515 38.0447 156.915 36.2483 157.586 34.547C158.277 32.8088 159.427 31.2907 160.913 30.1554C162.437 29.0603 164.219 28.3805 166.084 28.183C169.793 27.7501 173.533 28.6572 176.631 30.7403C178.147 31.8096 179.432 33.1736 180.409 34.7507C180.875 35.5426 181.274 36.3715 181.603 37.2292C181.956 38.0824 182.221 38.938 182.481 39.7964L182.265 39.6056C183.033 39.7977 183.782 40.0541 184.506 40.372C185.234 40.6785 185.924 41.0668 186.563 41.5294C187.211 41.989 187.766 42.5664 188.2 43.2314C188.611 43.9074 188.836 44.6801 188.852 45.4711C188.852 45.4767 188.851 45.4822 188.849 45.4874C188.847 45.4925 188.844 45.4973 188.84 45.5013C188.836 45.5053 188.832 45.5085 188.827 45.5107C188.822 45.513 188.816 45.5142 188.811 45.5143C188.8 45.514 188.789 45.5096 188.781 45.502C188.773 45.4944 188.768 45.4841 188.767 45.4731C188.705 44.7137 188.443 43.9841 188.009 43.3583C187.556 42.7513 186.994 42.2351 186.35 41.8366C185.715 41.4212 185.036 41.0777 184.324 40.8126C183.619 40.5384 182.892 40.3236 182.151 40.1704C182.102 40.1606 182.056 40.1383 182.019 40.1057C181.981 40.0731 181.953 40.0313 181.936 39.9844L181.935 39.9795C181.401 38.2925 180.679 36.671 179.782 35.1455C178.814 33.6937 177.581 32.4378 176.147 31.4438C173.205 29.5109 169.684 28.6592 166.183 29.0344C164.455 29.1896 162.797 29.7923 161.373 30.7828C159.971 31.8165 158.87 33.2053 158.184 34.806C157.481 36.43 157.032 38.1524 156.852 39.9128C156.649 41.684 156.652 43.4729 156.863 45.2433L156.715 45.1169C157.025 45.0401 157.465 44.8144 157.847 44.6654C158.245 44.4995 158.651 44.3549 159.064 44.2321C159.892 43.9834 160.747 43.8338 161.611 43.7862C163.354 43.7306 165.08 44.1352 166.617 44.9592L167.752 45.5306C168.129 45.7062 168.516 45.86 168.911 45.9915C169.667 46.2803 170.486 46.3648 171.285 46.2366C172.837 45.9182 174.056 44.6161 175.517 43.6849C176.243 43.1756 177.04 42.7759 177.882 42.4985C178.724 42.2368 179.593 42.071 180.471 42.0042C182.23 41.8328 184.005 42.0834 185.647 42.7353C186.499 43.0789 187.22 43.6825 187.708 44.46C187.83 44.6602 187.918 44.8793 187.968 45.1084C188.033 45.3332 188.064 45.5666 188.059 45.8007C188.056 46.0385 188.02 46.2746 187.952 46.5025C187.862 46.7241 187.737 46.9297 187.582 47.1111C186.933 47.7382 186.086 48.1202 185.186 48.1916C184.334 48.3185 183.469 48.3401 182.611 48.2557C182.6 48.2547 182.59 48.2492 182.583 48.2406C182.575 48.232 182.572 48.2209 182.573 48.2097C182.574 48.199 182.58 48.1893 182.588 48.1822C182.596 48.1751 182.606 48.1712 182.617 48.1713V48.1713Z" fill="black"/>
<path d="M178.755 38.3665C177.7 36.7816 176.741 35.1902 175.667 33.6905C175.144 32.9427 174.563 32.2364 173.931 31.5777C173.325 30.8873 172.531 30.3881 171.645 30.1411C172.137 30.1128 172.63 30.1829 173.095 30.3473C173.559 30.5118 173.986 30.7673 174.351 31.0989C175.105 31.7095 175.772 32.422 176.33 33.2158C177.441 34.7734 178.262 36.5181 178.755 38.3665ZM168.294 29.4304L167.078 32.29C166.69 33.2412 166.309 34.1896 165.971 35.1515C165.629 36.1122 165.342 37.0857 165.079 38.0707C164.841 39.0714 164.659 40.0849 164.536 41.1063C164.343 40.0663 164.315 39.0024 164.454 37.9538C164.604 36.9075 164.854 35.8782 165.202 34.8802C165.898 32.893 166.945 31.047 168.294 29.4304ZM178.755 39.9895C177.518 39.9563 176.28 40.0285 175.055 40.2052C173.831 40.3613 172.61 40.5331 171.391 40.7401C168.948 41.1238 166.52 41.609 164.028 41.9186C165.191 41.4547 166.381 41.0591 167.591 40.734C168.798 40.4039 170.024 40.1448 171.261 39.9357C172.501 39.7319 173.754 39.6107 175.01 39.5729C176.273 39.5013 177.539 39.6421 178.755 39.9895V39.9895ZM168.7 28.9481C168.864 28.9424 169.02 28.873 169.135 28.7546C169.249 28.6363 169.313 28.4781 169.313 28.3135C169.313 28.1489 169.249 27.9908 169.135 27.8724C169.02 27.754 168.864 27.6847 168.7 27.679C168.535 27.6847 168.379 27.754 168.265 27.8724C168.151 27.9908 168.087 28.1489 168.087 28.3135C168.087 28.4781 168.151 28.6363 168.265 28.7546C168.379 28.873 168.535 28.9424 168.7 28.9481V28.9481ZM181.599 43.4416C182.024 44.5014 182.386 45.5859 182.681 46.6891C182.753 46.9728 182.807 47.2608 182.843 47.5513C182.863 47.7065 182.869 47.8632 182.862 48.0195L182.843 48.4353C182.836 48.9921 182.865 49.5488 182.929 50.1019C182.981 50.6862 182.972 51.2743 182.903 51.8567L182.75 53.553C182.646 54.6782 182.549 55.8045 182.495 56.927C182.467 58.0773 182.381 59.2254 182.237 60.3669C182.134 60.9737 181.921 61.5566 181.609 62.0871C181.281 62.5853 180.89 63.0397 180.447 63.4392C179.617 64.264 178.647 64.9331 177.581 65.4148C176.515 65.8528 175.385 66.1128 174.235 66.1844C176.448 65.7756 178.466 64.6524 179.978 62.987C180.35 62.5958 180.682 62.1686 180.969 61.7117C181.217 61.2518 181.379 60.7504 181.447 60.2324C181.604 59.1686 181.589 58.0226 181.65 56.882C181.722 55.7379 181.823 54.6006 181.955 53.47C182.128 52.3669 182.237 51.2547 182.282 50.1391C182.255 49.5606 182.265 48.981 182.312 48.4038L182.36 47.971C182.375 47.8443 182.378 47.7166 182.37 47.5894C182.353 47.3147 182.322 47.041 182.276 46.7696C182.118 45.657 181.843 44.5521 181.599 43.4416ZM172.665 65.7275C171.68 65.6928 170.713 65.4533 169.826 65.0241C168.922 64.6116 168.091 64.0557 167.364 63.378C166.638 62.7024 166.023 61.9173 165.539 61.0512C165.054 60.2003 164.71 59.2766 164.519 58.3157C165.047 59.1377 165.519 59.9507 166.093 60.691C166.642 61.4365 167.261 62.1287 167.94 62.7583C168.614 63.3921 169.35 63.957 170.137 64.4445C170.938 64.9489 171.784 65.3784 172.665 65.7275V65.7275ZM166.406 45.0669C166.406 45.0669 164.402 50.041 164.519 51.6147L163.571 51.3609C163.571 51.3609 163.765 45.6474 160.82 46.3276C160.353 46.449 159.929 46.6984 159.597 47.0476C159.264 47.3969 159.035 47.8322 158.937 48.3043C158.647 49.3171 158.662 50.3928 158.981 51.3969C159.299 52.401 159.906 53.289 160.727 53.9499L161.082 56.4374C161.082 56.4374 158.188 58.2594 156.715 45.2663C158.178 44.4051 159.838 43.9344 161.535 43.8995C163.232 43.8646 164.91 44.2666 166.406 45.0669Z" fill="black"/>
<path d="M162.809 53.4931C162.83 53.7479 162.762 54.002 162.616 54.2119C162.468 54.4374 162.253 54.6095 162 54.703C161.858 54.7521 161.707 54.7691 161.557 54.7529C161.408 54.7367 161.263 54.6875 161.135 54.6091C161.02 54.5389 160.923 54.4427 160.852 54.3282C160.782 54.2137 160.739 54.0841 160.727 53.95C160.934 53.987 161.143 54.0075 161.353 54.0113C161.484 54.0044 161.612 53.9779 161.734 53.9325C161.996 53.8495 162.313 53.6625 162.809 53.4931ZM182.157 47.9089C181.32 47.9793 180.591 47.9675 179.856 48.015C179.489 48.0221 179.13 48.0646 178.759 48.0969C178.384 48.126 178.018 48.1995 177.587 48.2297C177.866 47.9128 178.209 47.6577 178.592 47.4806C178.976 47.3035 179.392 47.2083 179.815 47.2011C180.231 47.1819 180.649 47.2288 181.051 47.3402C181.457 47.4444 181.836 47.6388 182.157 47.9089V47.9089ZM174.235 47.9136C173.226 48.0135 172.302 48.0134 171.379 48.0764C170.918 48.0995 170.466 48.155 170.007 48.2067C169.548 48.2721 169.098 48.3673 168.592 48.4673C168.93 48.079 169.358 47.7788 169.838 47.5929C170.315 47.4087 170.817 47.2975 171.327 47.2631C171.831 47.2364 172.336 47.2742 172.83 47.3755C173.327 47.4687 173.803 47.651 174.235 47.9136V47.9136ZM178.43 52.7316C178.747 52.943 178.988 53.2506 179.117 53.6092C179.2 53.8111 179.236 54.0288 179.223 54.2464C179.211 54.464 179.15 54.6762 179.046 54.8675C178.927 55.0508 178.77 55.2059 178.585 55.322C178.4 55.438 178.192 55.5122 177.976 55.5392C177.601 55.5858 177.22 55.5277 176.876 55.3714C177.031 55.2813 177.193 55.203 177.36 55.1372L177.791 54.9303C178.013 54.8217 178.204 54.6576 178.343 54.4538C178.529 53.8983 178.559 53.3028 178.43 52.7316V52.7316ZM179.263 50.8279C179.427 50.8222 179.583 50.7529 179.697 50.6345C179.812 50.5161 179.876 50.3579 179.876 50.1933C179.876 50.0287 179.812 49.8706 179.697 49.7522C179.583 49.6338 179.427 49.5645 179.263 49.5588C179.098 49.5645 178.942 49.6338 178.828 49.7522C178.713 49.8706 178.649 50.0287 178.649 50.1933C178.649 50.3579 178.713 50.5161 178.828 50.6345C178.942 50.7529 179.098 50.8222 179.263 50.8279V50.8279ZM172.051 50.8787C172.216 50.8729 172.372 50.8036 172.486 50.6852C172.601 50.5668 172.665 50.4087 172.665 50.2441C172.665 50.0795 172.601 49.9214 172.486 49.803C172.372 49.6846 172.216 49.6152 172.051 49.6095C171.887 49.6152 171.731 49.6846 171.617 49.803C171.502 49.9214 171.438 50.0795 171.438 50.2441C171.438 50.4087 171.502 50.5668 171.617 50.6852C171.731 50.8036 171.887 50.8729 172.051 50.8787V50.8787ZM177.864 57.3005C177.672 57.6709 177.362 57.9672 176.983 58.1433C176.617 58.3269 176.22 58.4401 175.812 58.477C175.412 58.512 175.009 58.4835 174.618 58.3924C174.225 58.3047 173.854 58.1406 173.524 57.9097C173.901 57.831 174.284 57.7804 174.669 57.7582C175.033 57.7148 175.388 57.7117 175.736 57.6657C176.456 57.6173 177.169 57.4949 177.864 57.3005V57.3005Z" fill="black"/>
<path d="M161.571 68.5505C162.379 70.3607 163.104 72.1954 163.798 74.0464C164.891 73.4104 166.008 72.8233 167.109 72.2199C168.292 71.6001 169.475 70.9804 170.69 70.4096C166.596 71.7306 161.816 68.7054 161.571 68.5505ZM222.732 104.258C199.803 50.6602 192.2 66.4304 189.876 62.8099C190.119 63.2869 190.242 63.8158 190.235 64.3511C190.223 65.0174 189.994 65.6618 189.582 66.1858C188.65 67.1132 187.468 67.7505 186.181 68.0204C185.561 68.1779 184.932 68.2923 184.296 68.3629L183.366 68.4771C183.081 68.526 182.771 68.5912 182.477 68.6565C181.276 68.9299 180.1 69.3036 178.962 69.7736C177.833 70.2318 176.765 70.826 175.78 71.5431L175.071 72.1139L174.418 72.7417L173.227 74.1769C172.755 74.706 172.225 75.1793 171.645 75.5875C171.644 76.9518 171.783 78.3126 172.061 79.6483C172.336 81.0811 172.762 82.4806 173.333 83.8233C173.888 85.1687 174.687 86.3592 175.324 87.7699C175.909 89.1711 176.277 90.6531 176.417 92.165C176.542 93.6634 176.528 95.1702 176.376 96.6661C176.157 98.099 176.048 99.5465 176.05 100.996C176.185 102.449 176.495 103.881 176.971 105.261C177.404 106.663 177.934 108.041 178.432 109.436C177.143 106.794 175.797 104.086 175.405 101.078C175.305 100.32 175.302 99.5526 175.397 98.7944L175.577 96.5927C175.707 95.1469 175.707 93.6923 175.577 92.2465C175.455 90.8165 175.123 89.4123 174.59 88.0798C174.059 86.7832 173.219 85.4867 172.73 84.0597C171.708 81.3683 171.325 78.4764 171.612 75.612C171.15 75.9483 170.655 76.2378 170.136 76.4763C168.967 76.9991 167.681 77.2044 166.408 77.0716C167.652 77.0424 168.871 76.7093 169.957 76.1012C171.032 75.5193 171.975 74.7227 172.73 73.761L173.268 73.019L173.872 72.2443L174.549 71.5431L175.291 70.907C176.322 70.1317 177.445 69.488 178.635 68.9908C179.823 68.5104 181.052 68.1366 182.306 67.8737C182.624 67.8166 182.926 67.7595 183.269 67.7106L184.207 67.629C184.835 67.5964 185.43 67.4823 186.034 67.3926C187.231 67.2148 188.353 66.7032 189.272 65.9167C189.683 65.4827 189.943 64.9281 190.014 64.3348C190.071 63.7189 189.97 63.0987 189.721 62.5327C187.592 57.8603 182.053 57.2977 182.053 57.2977C181.955 58.8388 181.539 61.3992 181.539 61.3992C179.916 65.297 175.046 66.039 175.046 66.039C173.962 68.5749 172.379 69.8633 170.691 70.4096C169.573 71.1517 168.423 71.8366 167.281 72.5216C166.123 73.1821 164.973 73.8752 163.798 74.5112H163.79C163.743 74.5359 163.689 74.5412 163.638 74.5259C163.588 74.5107 163.546 74.476 163.521 74.4296L163.512 74.4052C162.811 72.4645 162.134 70.5238 161.563 68.5423C160.46 66.041 160.326 63.219 161.188 60.6246C161.645 59.4096 161.082 56.4333 161.082 56.4333C157.631 56.5149 156.522 60.698 156.522 60.698C156.376 61.3452 156.398 62.019 156.587 62.655C156.741 63.2884 156.963 63.9035 157.248 64.4897C157.817 65.6747 158.503 66.8001 159.295 67.8492C160.09 68.9619 160.762 70.1565 161.302 71.4126C161.893 72.6556 162.168 74.0253 162.101 75.4C161.846 74.0968 161.375 72.8454 160.706 71.698C160.454 71.225 160.176 70.7684 159.899 70.3118C159.409 71.6768 158.995 73.0679 158.659 74.4786C158.263 76.0443 157.996 77.6396 157.86 79.2488C157.711 80.839 157.763 82.4417 158.015 84.019C158.308 85.5846 158.724 87.1909 159.067 88.781C159.789 91.9825 160.207 95.2451 160.315 98.5253C160.344 100.178 160.18 101.828 159.825 103.442C159.492 104.916 158.892 106.317 158.055 107.576C158.186 107.658 158.282 107.785 158.326 107.932C158.37 108.08 158.359 108.238 158.295 108.378C158.232 108.518 158.119 108.63 157.979 108.694C157.839 108.757 157.681 108.768 157.533 108.724C157.386 108.68 157.259 108.584 157.177 108.454C157.096 108.323 157.063 108.168 157.087 108.016C157.111 107.864 157.189 107.726 157.307 107.627C157.425 107.528 157.575 107.475 157.729 107.479C157.831 107.48 157.932 107.505 158.023 107.552C158.722 106.244 159.193 104.827 159.418 103.361C159.687 101.772 159.769 100.157 159.662 98.5497C159.459 95.316 158.981 92.1053 158.235 88.9523C157.925 87.354 157.541 85.7884 157.256 84.1494C157.002 82.5049 156.988 80.8321 157.215 79.1835C157.63 76.0861 158.521 73.0714 159.858 70.2465C159.467 69.5942 159.051 68.9582 158.61 68.3385C157.782 67.2382 157.117 66.0243 156.636 64.7343C156.39 64.0849 156.236 63.4042 156.179 62.7121C156.099 62.0218 156.218 61.3229 156.522 60.698C133.267 62.8344 135.281 80.8062 135.281 80.8062C126.757 139.891 144.727 148.934 144.727 148.934C145.746 148.527 147.68 144.058 147.68 144.058C148.547 141.024 149.158 137.923 149.507 134.787C149.877 131.671 149.855 128.52 149.442 125.41C149.189 123.885 148.822 122.336 148.528 120.778C148.234 119.221 147.957 117.655 147.729 116.081C147.264 112.958 146.951 109.813 146.791 106.647L144.678 96.1932L143.56 90.9663C143.177 89.2295 142.786 87.4927 142.296 85.7803C142.908 87.4519 143.389 89.1806 143.862 90.8929C144.335 92.6135 144.768 94.3503 145.184 96.079C146.024 99.5445 146.823 103.026 147.541 106.516L147.549 106.565V106.582C147.729 109.713 148.112 112.852 148.552 115.967C148.765 117.525 149.015 119.079 149.303 120.631C149.572 122.181 149.923 123.714 150.168 125.312C150.378 126.895 150.454 128.494 150.396 130.09C150.356 131.682 150.217 133.27 149.98 134.844C149.763 136.418 149.455 137.978 149.058 139.516C148.684 141.055 148.224 142.571 147.68 144.058C155.804 159.592 175.095 155.327 177.64 153.093C179.516 151.446 186.482 147.915 190.006 146.17C186.895 147.62 183.709 148.905 180.463 150.019C176.753 151.367 172.899 152.276 168.977 152.726C168.488 152.783 167.974 152.742 167.477 152.759C167.232 152.759 166.979 152.775 166.726 152.751L165.968 152.669L165.217 152.579C164.973 152.53 164.728 152.457 164.483 152.4C163.997 152.293 163.517 152.157 163.047 151.992C161.167 151.366 159.36 150.54 157.656 149.53C154.267 147.536 151.122 145.155 148.283 142.436C149.817 143.659 151.375 144.833 152.998 145.917C154.597 147.023 156.256 148.041 157.966 148.967C161.383 150.753 165.079 152.327 168.912 151.878C172.774 151.462 176.581 150.634 180.267 149.407C182.135 148.845 183.986 148.217 185.822 147.565C187.657 146.937 189.46 146.252 191.27 145.559C191.287 145.55 191.311 145.542 191.328 145.534C191.793 145.306 192.062 145.175 192.062 145.175L194.908 137.323C195.83 134.705 196.768 132.088 197.649 129.454C198.538 126.828 199.378 124.178 200.186 121.528C200.569 120.191 200.986 118.862 201.312 117.516C201.679 116.252 201.948 114.964 202.274 113.676C201.295 112.298 200.357 110.879 199.476 109.436C197.986 107.046 196.704 104.534 195.643 101.926C195.161 100.572 194.729 99.308 194.142 98.0523C193.565 96.7962 192.923 95.5713 192.217 94.3829C191.523 93.1842 190.765 92.0182 189.965 90.8766C189.19 89.7187 188.35 88.6097 187.486 87.5089C189.472 89.4947 191.244 91.6839 192.771 94.0404C193.554 95.214 194.254 96.44 194.868 97.7098C195.458 98.9864 195.98 100.293 196.434 101.624C197.481 104.19 198.685 106.69 200.039 109.109C200.7 110.332 201.393 111.539 202.103 112.738C202.796 113.953 203.522 115.143 204.248 116.342C203.571 115.486 202.927 114.597 202.29 113.708C201.974 116.401 201.48 119.071 200.814 121.699C200.154 124.407 199.321 127.073 198.449 129.723C197.551 132.365 196.581 134.983 195.512 137.559C194.444 140.136 193.326 142.688 192.062 145.175C194.696 152.082 205.064 159.388 205.064 159.388C231.566 117.965 222.732 104.258 222.732 104.258V104.258ZM178.652 109.615C178.817 109.621 178.973 109.69 179.088 109.809C179.202 109.927 179.266 110.086 179.266 110.251C179.266 110.416 179.202 110.575 179.088 110.693C178.973 110.812 178.817 110.881 178.652 110.887C178.487 110.881 178.331 110.812 178.216 110.693C178.101 110.574 178.037 110.416 178.037 110.251C178.037 110.086 178.101 109.928 178.216 109.809C178.331 109.69 178.487 109.621 178.652 109.615L178.652 109.615ZM187.845 137.926C189.321 137.551 190.806 137.233 192.315 137.005C191.43 136.148 190.682 135.16 190.096 134.078C189.764 133.479 189.48 132.854 189.248 132.21C189.043 131.556 188.885 130.889 188.774 130.212C188.564 128.862 188.553 127.489 188.742 126.135C188.921 124.79 189.287 123.475 189.827 122.23C189.337 123.491 189.019 124.813 188.881 126.16C188.731 127.497 188.777 128.848 189.019 130.172C189.144 130.828 189.319 131.474 189.541 132.104C189.783 132.726 190.072 133.329 190.406 133.906C191.089 135.053 191.938 136.092 192.926 136.989C192.948 137.009 192.965 137.034 192.976 137.061C192.988 137.089 192.994 137.118 192.994 137.148C192.994 137.177 192.988 137.207 192.976 137.234C192.965 137.261 192.948 137.286 192.926 137.307C192.893 137.346 192.847 137.372 192.796 137.38C191.174 137.645 189.567 137.999 187.983 138.44C186.393 138.88 184.818 139.378 183.277 139.949C180.188 141.088 177.207 142.502 174.369 144.172H174.361C174.334 144.191 174.303 144.205 174.272 144.213C172.429 144.615 170.558 144.877 168.676 144.996C166.796 145.114 164.91 145.106 163.031 144.972C161.149 144.838 159.28 144.551 157.444 144.115C155.602 143.681 153.805 143.075 152.076 142.305C151.999 142.275 151.933 142.22 151.889 142.15C151.845 142.079 151.825 141.997 151.832 141.914V141.906L152.9 121.699C152.906 121.603 152.95 121.513 153.021 121.449C153.093 121.385 153.188 121.352 153.284 121.357C153.297 121.359 153.311 121.362 153.324 121.365C156.147 121.846 159.018 122.205 161.881 122.45C164.744 122.694 167.624 122.833 170.503 122.808C173.38 122.796 176.254 122.608 179.109 122.246C181.963 121.851 184.77 121.165 187.486 120.199C184.802 121.277 182.006 122.051 179.149 122.507C176.29 122.956 173.405 123.215 170.511 123.281C167.615 123.355 164.72 123.257 161.832 123.061C159.083 122.857 156.343 122.588 153.61 122.14L152.68 141.653C154.284 142.343 155.943 142.897 157.639 143.308C159.428 143.751 161.251 144.04 163.088 144.172C164.931 144.322 166.782 144.341 168.627 144.23C170.451 144.128 172.265 143.885 174.051 143.504C175.487 142.697 176.931 141.897 178.44 141.237C179.952 140.54 181.498 139.919 183.073 139.378C184.639 138.823 186.238 138.342 187.845 137.926L187.845 137.926ZM193.701 68.9093C192.957 69.2783 192.261 69.7385 191.629 70.2792C190.996 70.8154 190.439 71.4354 189.974 72.122C189.5 72.8191 189.093 73.5589 188.758 74.3318C188.872 73.9241 188.978 73.5082 189.125 73.1005C189.289 72.7021 189.48 72.3152 189.696 71.9426C190.131 71.1902 190.694 70.5196 191.36 69.9611C192.675 68.818 194.335 68.1464 196.075 68.0531C195.253 68.2451 194.456 68.5325 193.701 68.9093H193.701Z" fill="black"/>
<path d="M205.137 159.386C205.437 163.566 205.72 167.747 205.94 171.93C206.168 176.113 206.416 180.295 206.584 184.481L207.131 197.035C207.292 201.22 207.398 205.408 207.471 209.597L207.472 209.629C207.473 209.703 207.456 209.777 207.424 209.844C207.392 209.912 207.345 209.97 207.286 210.016C205.037 211.742 202.612 213.224 200.05 214.438C197.504 215.661 194.82 216.574 192.056 217.157C189.279 217.725 186.42 217.763 183.629 217.267C180.836 216.725 178.199 215.564 175.914 213.869L176.143 213.923C173.167 214.459 170.162 214.818 167.143 214.999C164.117 215.206 161.079 215.185 158.056 214.937C155 214.71 151.986 214.089 149.088 213.092C146.1 212.1 143.429 210.332 141.351 207.967C141.29 207.894 141.244 207.808 141.216 207.717C141.189 207.625 141.18 207.529 141.19 207.434L141.192 207.416C141.735 202.572 142.206 197.703 142.639 192.84C143.091 187.976 143.46 183.106 143.815 178.234C144.144 173.36 144.367 168.482 144.56 163.6C144.698 158.717 144.753 153.831 144.654 148.939C144.653 148.92 144.66 148.901 144.674 148.887C144.687 148.873 144.705 148.864 144.725 148.864C144.743 148.863 144.761 148.87 144.775 148.882C144.789 148.895 144.798 148.912 144.8 148.93C145.557 158.705 145.673 168.519 145.149 178.309C144.939 183.205 144.6 188.094 144.198 192.977C143.772 197.86 143.271 202.728 142.636 207.598L142.478 207.046C144.37 209.242 146.812 210.896 149.554 211.838C152.334 212.844 155.228 213.501 158.171 213.794C161.138 214.108 164.122 214.221 167.104 214.132C170.095 214.053 173.078 213.79 176.036 213.345L176.05 213.342C176.088 213.337 176.127 213.339 176.164 213.348C176.201 213.358 176.236 213.375 176.266 213.399C178.454 215.095 181.005 216.261 183.719 216.807C186.445 217.321 189.248 217.267 191.952 216.647C194.662 216.054 197.276 215.088 199.72 213.776C202.17 212.501 204.479 210.973 206.61 209.217L206.425 209.636C206.184 205.454 205.976 201.27 205.823 197.084L205.428 184.524C205.282 180.338 205.216 176.149 205.13 171.96C205.035 167.773 205.005 163.582 204.991 159.391C204.991 159.372 204.998 159.354 205.011 159.34C205.024 159.326 205.042 159.318 205.061 159.317C205.08 159.316 205.099 159.323 205.113 159.336C205.127 159.349 205.136 159.367 205.137 159.386L205.137 159.386Z" fill="black"/>
<path d="M168.593 165.952C167.36 165.885 166.136 165.703 164.937 165.408C163.731 165.127 162.551 164.746 161.408 164.268C160.252 163.799 159.156 163.192 158.145 162.461C157.118 161.743 156.266 160.804 155.653 159.712C156.492 160.581 157.45 161.328 158.497 161.931C159.532 162.537 160.611 163.067 161.723 163.517C162.828 163.996 163.968 164.401 165.114 164.799C166.264 165.186 167.418 165.581 168.593 165.952Z" fill="black"/>
<path d="M176.09 213.634L175.056 207.499L174.001 201.373C173.277 197.293 172.552 193.215 171.698 189.163C171.314 187.128 170.867 185.108 170.439 183.082C169.969 181.067 169.501 179.052 168.992 177.047C168.514 175.033 167.934 173.047 167.344 171.064L166.405 168.104L165.32 165.191C167.095 168.952 168.526 172.866 169.598 176.884C170.748 180.879 171.65 184.937 172.497 189.002C173.286 193.079 174.025 197.165 174.617 201.273C175.212 205.381 175.742 209.498 176.09 213.634Z" fill="black"/>
<path d="M168.872 214.467C168.253 210.864 167.778 207.24 167.357 203.61C166.936 199.979 166.631 196.336 166.359 192.689C166.154 189.039 165.974 185.382 166.027 181.719C166.062 179.888 166.129 178.056 166.302 176.23C166.431 174.397 166.835 172.593 167.5 170.88C166.989 172.628 166.72 174.438 166.701 176.259C166.61 178.075 166.614 179.897 166.655 181.717C166.731 185.358 166.904 188.997 167.172 192.636C167.376 196.277 167.692 199.911 167.979 203.549L168.872 214.467ZM205.212 175.118C202.868 175.479 200.508 175.718 198.139 175.834L198.681 175.258C198.741 176.456 198.807 177.654 198.792 178.855C198.779 180.055 198.717 181.257 198.678 182.458C198.579 184.859 198.654 187.263 198.9 189.652C199 190.849 199.137 192.045 199.226 193.242C199.314 194.439 199.375 195.637 199.442 196.835C199.6 199.231 199.663 201.629 199.66 204.029L199.114 203.422C199.747 203.527 200.428 203.59 201.09 203.635C201.754 203.674 202.42 203.678 203.084 203.649C203.739 203.618 204.386 203.497 205.008 203.289C205.64 203.109 206.179 202.692 206.511 202.124C206.519 202.11 206.531 202.099 206.546 202.094C206.561 202.088 206.578 202.088 206.593 202.093C206.608 202.099 206.62 202.11 206.628 202.124C206.635 202.138 206.637 202.155 206.634 202.17C206.523 202.521 206.343 202.845 206.103 203.123C205.864 203.402 205.571 203.629 205.241 203.791C204.599 204.127 203.91 204.365 203.198 204.495C202.498 204.632 201.789 204.712 201.077 204.734C200.364 204.761 199.65 204.742 198.94 204.676C198.798 204.664 198.665 204.602 198.566 204.5C198.466 204.398 198.406 204.264 198.397 204.122L198.394 204.069C198.239 201.674 198.152 199.276 198.158 196.876C198.15 195.676 198.135 194.476 198.149 193.276C198.162 192.075 198.223 190.873 198.248 189.672C198.344 187.272 198.267 184.868 198.018 182.479C197.903 181.283 197.765 180.087 197.678 178.89C197.587 177.692 197.577 176.493 197.562 175.293L197.562 175.269C197.561 175.197 197.574 175.126 197.601 175.06C197.628 174.993 197.667 174.932 197.717 174.881C197.767 174.83 197.827 174.789 197.893 174.761C197.959 174.732 198.03 174.717 198.101 174.717H198.104C200.475 174.683 202.846 174.774 205.208 174.987C205.224 174.989 205.239 174.996 205.25 175.008C205.261 175.019 205.267 175.035 205.267 175.051C205.268 175.067 205.262 175.082 205.252 175.095C205.242 175.107 205.228 175.115 205.212 175.118H205.212Z" fill="black"/>
<path d="M205.47 180.217C204.356 180.731 203.182 181.103 201.975 181.326C200.775 181.583 199.548 181.687 198.321 181.636C199.435 181.12 200.609 180.748 201.816 180.527C203.016 180.271 204.244 180.167 205.47 180.217V180.217ZM206.159 210.234C206.46 211.367 206.741 212.505 207.003 213.648C207.117 214.209 207.277 214.76 207.48 215.296C207.73 215.804 208.034 216.283 208.386 216.726C208.734 217.188 209.069 217.704 209.411 218.141C209.747 218.592 210.135 219.036 210.507 219.482C211.265 220.37 212.033 221.258 212.775 222.169C215.808 225.783 218.53 229.646 220.914 233.717C222.127 235.743 223.194 237.854 224.203 239.99C224.701 241.061 225.154 242.153 225.625 243.235L226.868 246.553L227.946 249.925C228.27 251.041 228.618 252.151 228.989 253.255C229.717 255.465 230.555 257.638 231.459 259.79L231.449 259.771L231.492 259.866L231.502 259.885L232.673 262.591C233.081 263.487 233.431 264.412 233.781 265.331C232.884 263.579 231.916 261.87 230.999 260.125L231.008 260.143L230.958 260.052L230.948 260.033C229.849 257.949 228.872 255.802 228.021 253.605C227.596 252.505 227.195 251.397 226.816 250.28L225.65 246.996C223.99 242.659 221.991 238.459 219.673 234.435C218.533 232.412 217.269 230.461 215.996 228.516C214.696 226.588 213.334 224.7 211.935 222.832L209.815 220.033C209.093 219.095 208.435 218.11 207.845 217.084C207.51 216.579 207.23 216.039 207.011 215.474C206.845 214.898 206.726 214.31 206.655 213.715L206.159 210.234ZM222.291 277.269C220.669 274.665 219.071 272.052 217.397 269.488C215.759 266.902 214.09 264.337 212.361 261.817C210.613 259.304 208.892 256.793 207.021 254.388C205.225 251.96 203.219 249.695 201.026 247.618C199.964 246.661 198.622 245.734 197.512 244.65C196.926 244.132 196.374 243.583 195.836 243.02C195.281 242.473 194.763 241.894 194.255 241.306C192.222 238.965 190.393 236.455 188.79 233.801C187.184 231.162 185.784 228.402 184.604 225.547C183.43 222.697 182.603 219.716 182.139 216.668C182.874 219.634 183.92 222.514 185.26 225.261C186.55 228.016 188.047 230.67 189.739 233.199C191.411 235.727 193.266 238.129 195.289 240.387C195.8 240.944 196.3 241.51 196.843 242.033C197.368 242.574 197.906 243.102 198.473 243.595C199.566 244.647 200.776 245.449 202 246.532C204.252 248.681 206.301 251.033 208.121 253.557C209.948 256.041 211.682 258.595 213.297 261.204C214.922 263.814 216.492 266.453 218.008 269.122C219.479 271.816 220.957 274.505 222.291 277.269ZM173.096 213.728C172.661 213.868 172.279 214.137 171.999 214.498C171.707 214.844 171.461 215.226 171.268 215.635C170.869 216.448 170.564 217.305 170.359 218.187C170.148 219.071 169.99 219.966 169.887 220.868C169.837 221.32 169.774 221.769 169.734 222.222L169.655 223.585C169.486 227.227 169.557 230.877 169.866 234.51L170.896 245.453C171.2 249.113 171.435 252.782 171.568 256.462C171.707 260.153 171.636 263.85 171.357 267.534C171.19 269.385 170.918 271.225 170.544 273.045C170.353 273.954 170.143 274.855 169.913 275.748C169.692 276.615 169.52 277.494 169.398 278.38C168.969 282.002 168.736 285.645 168.701 289.292C168.572 292.952 168.578 296.618 168.559 300.287C167.883 292.957 167.791 285.585 168.283 278.241C168.377 277.307 168.524 276.378 168.723 275.461C168.925 274.571 169.121 273.686 169.288 272.797C169.619 271.018 169.849 269.223 169.979 267.419C170.219 263.787 170.262 260.145 170.108 256.508C170.005 252.859 169.776 249.208 169.521 245.558C169.285 241.908 168.928 238.265 168.749 234.579C168.567 230.894 168.632 227.202 168.945 223.526L169.108 222.15C169.175 221.693 169.267 221.238 169.345 220.783C169.505 219.871 169.72 218.97 169.988 218.084C170.25 217.192 170.616 216.335 171.077 215.528C171.308 215.124 171.591 214.753 171.919 214.423C172.233 214.078 172.643 213.836 173.096 213.728V213.728ZM146.215 211.038C145.785 212.342 145.529 213.699 145.455 215.071C145.366 216.435 145.387 217.805 145.516 219.167C145.648 220.526 145.855 221.876 146.137 223.211C146.272 223.88 146.447 224.54 146.6 225.204L147.164 227.171C147.171 227.195 147.176 227.219 147.179 227.244L148.343 236.275L149.428 245.316C150.098 251.349 150.859 257.377 151.38 263.42C151.934 269.465 152.407 275.521 152.713 281.588C152.856 284.623 153.022 287.657 153.026 290.698C153.039 292.218 153.03 293.739 152.973 295.259C152.955 296.782 152.796 298.299 152.499 299.792C152.667 298.286 152.716 296.77 152.647 295.257C152.614 293.744 152.534 292.231 152.432 290.719C152.216 287.698 152.014 284.675 151.74 281.657C151.186 275.62 150.584 269.588 149.975 263.555L149.518 259.027L149.011 254.507L148.036 245.464L147.116 236.415L146.275 227.355L146.29 227.427L145.786 225.401C145.654 224.717 145.5 224.039 145.387 223.352C145.156 221.979 145.019 220.592 144.975 219.2C144.925 217.811 144.985 216.42 145.156 215.04C145.314 213.662 145.671 212.314 146.215 211.038V211.038ZM199.645 223.695C200.069 224.255 200.413 224.871 200.668 225.525C200.932 226.18 201.119 226.864 201.225 227.563C201.341 228.28 201.312 229.014 201.14 229.72C201.066 230.08 200.916 230.419 200.7 230.716C200.485 231.014 200.208 231.261 199.889 231.443C200.263 230.901 200.48 230.266 200.514 229.608C200.556 228.962 200.524 228.314 200.418 227.676C200.238 226.37 199.901 225.072 199.645 223.695ZM157.353 221.701C157.573 223.182 157.452 224.693 157.002 226.121C156.772 226.858 156.401 227.544 155.909 228.139C155.671 228.454 155.353 228.701 154.989 228.854C154.625 229.008 154.227 229.062 153.835 229.013C154.503 228.816 155.067 228.364 155.403 227.754C155.747 227.158 156.023 226.527 156.226 225.87C156.654 224.529 156.95 223.131 157.353 221.701Z" fill="black"/>
<path d="M206.92 208.74C207.231 210.376 207.405 212.034 207.442 213.698C207.511 215.361 207.442 217.027 207.233 218.678C206.921 217.043 206.747 215.385 206.712 213.721C206.644 212.058 206.714 210.392 206.92 208.74V208.74ZM251.787 276.474C251.331 275.397 250.63 274.442 249.739 273.684C248.848 272.927 247.792 272.388 246.656 272.112C243.891 271.41 241.46 268.018 241.46 268.018C241.46 268.018 238.401 261.617 235.245 263.346C233.271 264.422 233.369 267.505 233.727 269.665C233.927 270.724 233.909 271.812 233.675 272.863C233.441 273.914 232.995 274.907 232.365 275.781C229.6 279.369 225.66 278.439 223.939 277.795C223.134 277.467 222.237 277.447 221.419 277.738C217.56 279.19 221.272 284.955 221.272 284.955C221.689 284.254 222.254 283.653 222.928 283.193C223.606 282.71 224.374 282.366 225.187 282.182C225.998 281.991 226.838 281.966 227.659 282.109C228.476 282.226 229.247 282.558 229.894 283.071C228.408 282.949 226.912 283.05 225.456 283.373C224.752 283.538 224.062 283.759 223.392 284.033C222.691 284.294 222.03 284.645 221.272 284.955C221.272 284.955 220.497 287.336 219.396 290.662C220.01 290.155 220.701 289.747 221.443 289.456C222.175 289.145 222.942 288.923 223.727 288.795C224.542 288.666 225.375 288.688 226.182 288.86C226.605 288.924 227.005 289.095 227.342 289.358C227.679 289.621 227.943 289.966 228.107 290.361C227.502 289.955 226.779 289.76 226.052 289.806C225.336 289.831 224.622 289.899 223.915 290.01L221.704 290.369C220.962 290.491 220.203 290.605 219.396 290.662C218.808 292.456 218.123 294.519 217.413 296.639C217.982 296.053 218.654 295.578 219.396 295.237C220.134 294.871 220.928 294.629 221.745 294.519C222.582 294.398 223.435 294.454 224.249 294.682C225.062 294.918 225.779 295.407 226.296 296.077C225.577 295.838 224.832 295.685 224.078 295.62C223.353 295.594 222.627 295.63 221.908 295.726C220.456 295.922 219.012 296.321 217.413 296.639C216.231 300.195 214.983 303.897 214.004 306.685C211.369 314.22 214.42 315.353 214.42 315.353C214.142 315.02 213.946 314.628 213.847 314.206C213.748 313.784 213.749 313.345 213.849 312.923C214.032 312.513 214.316 312.155 214.674 311.883C215.031 311.611 215.452 311.433 215.896 311.366C216.338 311.282 216.791 311.279 217.234 311.358C217.66 311.445 218.075 311.576 218.474 311.749C219.226 312.006 220.023 312.104 220.815 312.035C222.405 311.832 223.897 311.156 225.097 310.094C226.319 309.042 227.401 307.839 228.319 306.514L228.352 306.465C229.877 303.782 231.517 301.165 233.238 298.588C234.111 297.3 235.016 296.028 235.971 294.788C236.452 294.169 236.949 293.557 237.488 292.97C237.757 292.677 238.059 292.399 238.336 292.114C238.646 291.853 239.021 291.551 239.29 291.347C240.461 290.395 241.537 289.333 242.504 288.175C243.499 287.017 244.438 285.794 245.318 284.539C246.196 283.275 247.01 281.969 247.757 280.625C248.544 279.299 249.057 277.83 249.266 276.303C249.218 277.869 248.825 279.406 248.116 280.804C247.482 282.232 246.743 283.611 245.906 284.93C245.074 286.243 244.176 287.52 243.214 288.762C242.262 290.039 241.164 291.199 239.943 292.22C238.791 293.177 237.771 294.282 236.908 295.506C235.979 296.729 235.106 297.993 234.249 299.265C232.528 301.826 230.889 304.451 229.29 307.077L229.282 307.101L229.257 307.126C228.249 308.528 227.052 309.785 225.701 310.86C224.314 311.969 222.626 312.637 220.856 312.777C219.967 312.808 219.081 312.656 218.254 312.328C217.894 312.142 217.517 311.992 217.128 311.88C216.748 311.779 216.352 311.752 215.962 311.798C215.57 311.827 215.192 311.954 214.861 312.166C214.531 312.378 214.259 312.669 214.069 313.013C213.95 313.405 213.919 313.818 213.98 314.223C214.041 314.628 214.191 315.014 214.42 315.353C220.97 322.309 230.497 309.817 236.329 299.012C242.162 288.208 246.656 286.324 246.656 286.324C252.823 283.193 252.986 279.369 251.787 276.474ZM240.751 281.856C240.563 284.865 237.325 285.966 236.077 285.175C234.828 284.392 234.894 281.628 236.223 279.01C237.553 276.393 239.649 274.909 240.897 275.691C242.145 276.474 240.963 278.358 240.751 281.856V281.856ZM174.19 315.141C172.624 312.491 173.032 308.21 173.032 308.21C173.032 308.21 174.916 301.287 171.49 300.064C169.353 299.29 167.444 301.565 166.31 303.375C165.796 304.265 165.083 305.023 164.227 305.592C163.371 306.161 162.395 306.524 161.375 306.653C157.036 307.052 154.752 303.342 153.912 301.548C153.544 300.702 152.912 299.998 152.109 299.542C148.348 297.585 147.345 304.549 147.345 304.549C148.18 304.401 149.038 304.437 149.858 304.655C150.694 304.856 151.481 305.222 152.174 305.731C152.875 306.225 153.476 306.848 153.944 307.566C154.432 308.263 154.748 309.064 154.866 309.906C153.862 308.715 152.72 307.648 151.464 306.726C150.853 306.279 150.203 305.886 149.523 305.552C148.846 305.185 148.112 304.916 147.345 304.549C147.345 304.549 145.249 305.634 142.304 307.142C143.126 307.29 143.922 307.554 144.67 307.925C145.421 308.288 146.13 308.734 146.782 309.254C147.455 309.787 148.027 310.436 148.471 311.17C148.725 311.532 148.893 311.947 148.962 312.384C149.031 312.82 149 313.267 148.871 313.69C148.666 312.944 148.262 312.268 147.704 311.733C147.17 311.189 146.603 310.677 146.007 310.2L144.164 308.732C143.517 308.234 142.896 307.704 142.304 307.142C140.722 307.957 138.886 308.887 137.01 309.849C137.861 309.902 138.695 310.106 139.474 310.453C140.267 310.787 141.007 311.238 141.668 311.79C142.34 312.356 142.902 313.041 143.324 313.812C143.734 314.588 143.918 315.464 143.854 316.34C143.47 315.636 143.025 314.968 142.524 314.342C142.012 313.765 141.462 313.223 140.877 312.72C139.686 311.717 138.381 310.86 137.01 309.849H137.002C133.846 311.456 130.542 313.111 128.03 314.334C121.243 317.637 122.744 320.8 122.744 320.8C122.776 320.372 122.884 319.952 123.062 319.561C123.234 319.139 123.561 318.798 123.976 318.607C124.409 318.447 124.884 318.441 125.321 318.591C125.755 318.714 126.159 318.922 126.512 319.202C127.201 319.776 127.729 320.517 128.046 321.355C128.406 322.081 128.892 322.738 129.481 323.296C130.068 323.848 130.74 324.302 131.472 324.641C132.217 324.961 132.997 325.194 133.797 325.334C135.405 325.581 137.041 325.584 138.65 325.342H138.666C141.554 324.633 144.469 324.032 147.411 323.54C148.887 323.304 150.363 323.1 151.864 322.961C152.615 322.896 153.373 322.863 154.14 322.855C154.523 322.863 154.915 322.896 155.298 322.912C155.682 322.969 156.147 323.043 156.465 323.1C157.885 323.334 159.326 323.416 160.764 323.344C162.232 323.296 163.698 323.165 165.152 322.953C166.609 322.742 168.053 322.446 169.475 322.064C170.182 321.866 170.875 321.618 171.547 321.322C172.23 321.039 172.857 320.636 173.399 320.132C172.346 321.208 171.039 322.002 169.598 322.439C168.192 322.956 166.746 323.357 165.274 323.638C163.8 323.93 162.31 324.137 160.812 324.258C159.292 324.412 157.757 324.379 156.244 324.16C154.829 323.939 153.388 323.931 151.97 324.135C150.518 324.282 149.058 324.494 147.606 324.731C144.702 325.228 141.79 325.807 138.911 326.451H138.895L138.854 326.459C137.106 326.692 135.333 326.642 133.601 326.313C132.73 326.122 131.886 325.823 131.088 325.424C130.293 325.012 129.569 324.475 128.943 323.834C128.327 323.185 127.827 322.435 127.467 321.616C127.327 321.227 127.161 320.848 126.969 320.482C126.769 320.135 126.519 319.819 126.227 319.545C125.933 319.274 125.59 319.064 125.215 318.925C124.853 318.766 124.448 318.735 124.065 318.835C123.701 319.029 123.39 319.31 123.159 319.653C122.929 319.995 122.786 320.39 122.744 320.8C123.054 330.822 138.071 329.346 149.295 326.207C160.527 323.067 165.03 325.22 165.03 325.22C171.563 327.78 174.141 325.204 175.128 322.211C175.481 321.033 175.581 319.794 175.419 318.575C175.257 317.357 174.838 316.186 174.19 315.141V315.141ZM163.586 317.465C161.514 319.455 158.439 317.726 158.031 316.201C157.623 314.668 159.45 312.769 162.117 311.937C164.777 311.113 167.265 311.684 167.672 313.209C168.08 314.734 166 315.158 163.586 317.465V317.465ZM195.513 167.512C194.783 167.407 194.075 167.183 193.418 166.849C192.748 166.523 192.127 166.106 191.572 165.609C191.015 165.096 190.555 164.487 190.214 163.81C189.891 163.129 189.756 162.374 189.825 161.623C190.064 162.281 190.38 162.909 190.766 163.494C191.168 164.042 191.622 164.549 192.123 165.008C192.636 165.472 193.177 165.904 193.742 166.304C194.314 166.71 194.901 167.105 195.513 167.512ZM152.246 153.998C152.304 154.611 152.254 155.231 152.1 155.827C151.96 156.435 151.725 157.017 151.405 157.553C151.08 158.107 150.635 158.583 150.103 158.944C149.567 159.298 148.924 159.456 148.285 159.389C148.81 159.156 149.291 158.836 149.709 158.444C150.096 158.049 150.431 157.608 150.707 157.131C151.276 156.115 151.789 155.069 152.246 153.998V153.998ZM244.847 258.875C240.128 258.837 235.41 258.816 230.692 258.812C230.861 259.18 231.03 259.548 231.204 259.912C235.753 259.899 240.298 259.886 244.847 259.848L273.526 259.671C283.086 259.565 292.646 259.506 302.206 259.362C292.646 259.218 283.086 259.159 273.526 259.053L244.847 258.875ZM187.488 258.727L170.895 258.761C170.899 259.171 170.904 259.573 170.908 259.962L187.488 259.996L211.792 259.945C211.534 259.552 211.267 259.163 211.005 258.774L187.488 258.727ZM72.7708 259.362C82.3307 259.506 91.8904 259.569 101.45 259.675L130.13 259.848C136.862 259.903 143.595 259.912 150.328 259.924C150.29 259.548 150.252 259.176 150.218 258.799C143.519 258.812 136.824 258.82 130.13 258.875L101.45 259.049C91.8904 259.154 82.3307 259.218 72.7708 259.362Z" fill="black"/>
</svg>
