<svg width="452" height="302" viewBox="0 0 452 302" fill="none" xmlns="http://www.w3.org/2000/svg">
<path d="M113.184 61.0874L113.173 61.0878C113.156 61.0885 113.139 61.0847 113.124 61.0769L113.116 61.0726C111.718 60.3633 110.282 59.7313 108.815 59.1794C107.36 58.6259 105.852 58.0899 104.386 57.6601L104.505 57.6773L104.483 57.6779C104.447 57.679 104.411 57.6743 104.376 57.6639L104.346 57.6549C96.5992 55.2233 88.5552 53.8677 80.4397 53.6259C76.395 53.506 72.3468 53.6351 68.3179 54.0126L56.1065 55.045C47.9628 55.7024 39.8039 56.1723 31.6489 56.6918C23.4919 57.1863 15.3385 57.7226 7.19667 58.4012L7.37091 57.7771C8.81162 58.8246 10.1296 60.0315 11.2998 61.3748C12.4577 62.7341 13.4445 64.2303 14.2382 65.8301C15.0062 67.4404 15.6148 69.122 16.0555 70.8509C16.473 72.5834 16.7408 74.3487 16.856 76.1271C17.054 79.6815 16.8151 83.2466 16.1447 86.7427C15.5106 90.2541 14.5154 93.6906 13.1751 96.9973L12.2054 95.7485C17.9342 94.6655 23.6613 93.573 29.3974 92.5321L46.5993 89.3721L45.6595 90.2197L45.784 89.8503L45.7462 89.9508C46.5785 87.316 48.2926 85.0485 50.5999 83.5301C52.8931 82.0156 55.6131 81.2811 58.3564 81.4354C61.1115 81.6125 63.7254 82.7181 65.772 84.572C66.0393 84.7864 66.2806 85.0313 66.491 85.3018L67.1557 86.0835C67.5542 86.6343 67.9217 87.2069 68.2563 87.7987C68.5744 88.3857 68.7916 88.9894 69.0619 89.5845C69.1878 89.8838 69.325 90.18 69.4407 90.4819L69.7244 91.4045C71.0935 96.2837 71.6198 101.361 71.2805 106.417C71.0554 111.406 70.3558 116.361 69.1911 121.216L68.3313 120.353L79.895 117.933L91.4825 115.615C91.5117 115.609 91.542 115.615 91.567 115.631C91.592 115.647 91.6097 115.672 91.6163 115.702C91.6229 115.731 91.618 115.761 91.6025 115.786C91.587 115.812 91.5622 115.83 91.5334 115.838L80.1049 118.837L68.656 121.75C68.5408 121.779 68.4201 121.779 68.3051 121.749C68.19 121.72 68.0843 121.661 67.9977 121.58C67.9111 121.499 67.8463 121.397 67.8095 121.284C67.7726 121.171 67.7648 121.05 67.7867 120.933L67.7959 120.886C68.7199 116.095 69.2477 111.235 69.3738 106.357C69.5815 101.542 68.9696 96.7268 67.5643 92.1172L67.2932 91.2753C67.185 91.0037 67.0575 90.7417 66.9411 90.4743C66.6944 89.9516 66.4873 89.3888 66.2122 88.8979C65.9004 88.4422 65.6561 87.9351 65.3021 87.5153L64.7602 86.8955C64.5934 86.6777 64.398 86.4835 64.1792 86.3181C62.5216 84.8565 60.42 83.9969 58.2138 83.878C55.9975 83.7507 53.7991 84.3403 51.9435 85.5596C50.0954 86.7795 48.7126 88.5875 48.0186 90.6911L47.9807 90.7921C47.9748 90.8209 47.9659 90.849 47.9542 90.8759L47.8775 91.0502C47.7997 91.2247 47.6803 91.3774 47.5297 91.4948C47.3792 91.6122 47.2021 91.6909 47.014 91.7238L29.77 94.645C24.0242 95.6312 18.2692 96.5657 12.516 97.5099C12.3563 97.5361 12.1925 97.5187 12.0419 97.4596C11.8912 97.4005 11.7593 97.3018 11.66 97.1739C11.5607 97.046 11.4978 96.8937 11.4777 96.7331C11.4577 96.5724 11.4813 96.4093 11.5462 96.2609C12.9133 93.0999 13.9795 89.8168 14.7303 86.4554C15.5114 83.0889 15.8626 79.6369 15.7757 76.182C15.7192 74.4599 15.5151 72.7458 15.1656 71.0586C14.7953 69.3777 14.2387 67.7435 13.5062 66.1861C12.7595 64.6364 11.8258 63.1841 10.726 61.8617C9.60881 60.5492 8.3475 59.3668 6.96591 58.3367L6.95629 58.3293C6.90139 58.2866 6.86068 58.2283 6.83946 58.162C6.81824 58.0958 6.81752 58.0247 6.83739 57.958C6.85726 57.8913 6.89679 57.8322 6.95081 57.7884C7.00483 57.7446 7.0708 57.7182 7.1401 57.7125C15.2832 57.0505 23.4152 56.2514 31.5427 55.4012C39.6726 54.5774 47.7983 53.7042 55.9395 53.0183L68.1549 52.0358C72.2666 51.6848 76.3978 51.6215 80.5183 51.8464C84.637 52.0746 88.7327 52.6131 92.7706 53.4571C96.8047 54.2739 100.767 55.4119 104.62 56.86L104.483 56.8372L104.505 56.8377L104.537 56.8387C104.567 56.8397 104.596 56.8452 104.624 56.8551C106.151 57.4008 107.58 58.0074 109.034 58.6573C110.48 59.3032 111.881 60.0437 113.23 60.8738L113.173 60.8587L113.184 60.8591C113.214 60.8603 113.241 60.8728 113.262 60.8941C113.282 60.9154 113.294 60.9438 113.294 60.9733C113.294 61.0028 113.282 61.0312 113.262 61.0525C113.241 61.0738 113.214 61.0863 113.184 61.0875L113.184 61.0874ZM163.121 91.5416C162.47 88.2795 161.164 85.1836 159.281 82.4417C158.342 81.1272 157.261 79.9197 156.059 78.8407C154.842 77.7763 153.537 76.8164 152.158 75.9711C149.327 74.3144 146.305 73.006 143.16 72.0741C139.971 71.1076 136.71 70.3969 133.407 69.9486L133.344 69.9424C132.215 69.6276 131.09 69.2915 129.97 68.934C131.145 68.9918 132.315 69.0756 133.483 69.1786L133.419 69.1723C136.867 69.0216 140.32 69.3505 143.678 70.1495C147.088 70.918 150.35 72.2376 153.336 74.0565C156.381 75.8921 158.916 78.4639 160.708 81.5357C162.431 84.5797 163.267 88.0462 163.121 91.5416V91.5416Z" fill="white"/>
<path d="M55.0321 82.1334C57.0209 81.3631 59.0318 80.6925 61.0567 80.0843C63.0798 79.4677 65.1133 78.8984 67.1573 78.3763C69.1953 77.8267 71.2557 77.3783 73.3082 76.8938C75.3718 76.4605 77.4317 76.0076 79.5112 75.6437L79.9918 75.5596L80.2938 75.7903C81.1463 76.4494 81.9329 77.1896 82.6426 78.0006C83.3469 78.7723 83.9939 79.5943 84.5786 80.4603C85.1647 81.3155 85.6905 82.2106 86.1524 83.139C86.6179 84.0573 87.0117 85.0104 87.33 85.9896C86.7344 85.1556 86.1211 84.3482 85.49 83.5676C84.8499 82.7881 84.2041 82.0103 83.5304 81.3046C82.8427 80.589 82.1392 79.8967 81.4081 79.2449C80.694 78.6164 79.946 78.0274 79.1676 77.4807L79.9498 77.6273C77.9117 78.174 75.854 78.6327 73.8019 79.1188C71.7381 79.5514 69.6824 80.0201 67.6042 80.3877C65.5327 80.786 63.4501 81.1338 61.3562 81.4312C59.2648 81.7402 57.1596 81.9867 55.0321 82.1334ZM26.0802 56.5005C28.518 58.7565 30.4362 61.516 31.702 64.5877C33.0255 67.6588 33.8606 70.9183 34.1768 74.2478C34.4412 77.5691 34.2376 80.9112 33.5718 84.1758C33.4915 84.5816 33.4298 84.9903 33.3339 85.3917L32.9932 86.5839L32.2782 88.9477C31.7008 90.4884 31.0251 91.9907 30.3167 93.4566C30.5473 91.8213 30.928 90.2538 31.1932 88.6677L31.5278 86.2842L31.7121 85.1027C31.7617 84.7077 31.7767 84.3079 31.8107 83.9117C31.8659 83.1174 31.9292 82.3271 32.0126 81.5403C32.0715 80.7514 32.0405 79.9582 32.0596 79.17C32.0951 77.596 32.0435 76.0213 31.9053 74.453C31.6156 71.3172 30.9915 68.2214 30.0437 65.2184C29.0889 62.1592 27.7575 59.2308 26.0802 56.5005V56.5005Z" fill="white"/>
<path d="M87.9455 80.2648C89.6511 79.6276 91.3674 79.0011 93.0946 78.407C92.999 79.1123 92.9485 79.8231 92.9435 80.5348C91.4646 80.9993 89.9749 81.4422 88.4744 81.8743C87.4597 82.1659 86.445 82.4576 85.4195 82.7492C85.2792 82.5331 85.1388 82.3279 84.9985 82.1335C84.8582 81.9282 84.707 81.7338 84.5775 81.5502C85.7001 81.1074 86.8228 80.6861 87.9455 80.2648ZM104.958 76.6139C103.641 77.0675 102.346 77.5213 101.029 77.9641H101.018C100.608 77.3143 100.13 76.7096 99.5931 76.1602L100.079 75.9982C101.536 75.5229 102.993 75.0477 104.451 74.5832C104.623 75.3177 104.807 75.9982 104.958 76.6139ZM97.5421 69.4957C99.7118 68.7936 101.882 68.0915 104.062 67.411C103.826 68.136 103.713 68.8954 103.727 69.6577C101.903 70.3058 100.057 70.9214 98.2221 71.548C94.1525 72.8765 90.0613 74.1835 85.9377 75.3609C84.027 75.9226 82.1055 76.459 80.1732 76.9704C77.9495 77.5644 75.7258 78.1261 73.4697 78.6122C74.3656 78.2125 75.2616 77.8128 76.1684 77.424C76.1792 77.424 76.1792 77.424 76.1899 77.4132C79.2341 76.1171 82.3214 74.918 85.4087 73.7622C89.4244 72.2501 93.4832 70.8675 97.5421 69.4957ZM114.522 65.6719C114.339 65.7475 114.155 65.8231 113.972 65.888C113.5 65.4928 112.968 65.1756 112.396 64.9482C112.979 64.7862 113.562 64.6242 114.144 64.4621C114.285 64.9158 114.414 65.3263 114.522 65.6719ZM12.3626 96.6251C-12.008 74.3675 7.17234 58.0613 7.17234 58.0613C24.2057 70.4031 12.3626 96.6251 12.3626 96.6251ZM68.4917 121.047C48.3814 127.05 46.8076 90.5463 46.8076 90.5463C46.8311 90.4714 46.855 90.397 46.879 90.3231C49.9027 81.0292 62.8635 79.8271 67.3347 88.517C73.3937 100.293 68.4917 121.047 68.4917 121.047ZM83.6609 116.688C80.3301 124.9 76.9225 133.028 73.7869 141.23C70.5822 149.332 67.8818 157.624 65.7009 166.059C65.1864 168.129 64.7912 170.227 64.5175 172.343C64.2199 174.391 64.2292 176.472 64.5449 178.517C64.7106 179.479 65.0368 180.406 65.5098 181.26C65.9922 182.071 66.6609 182.756 67.4603 183.257C69.2853 184.182 71.3604 184.493 73.3762 184.143C77.658 183.399 81.7774 181.914 85.5498 179.756C86.5077 179.224 87.4672 178.7 88.4133 178.146L91.2102 176.404C93.0975 175.284 94.8663 173.973 96.677 172.742C98.4811 171.498 100.197 170.127 101.956 168.831L104.511 166.771C105.361 166.085 106.236 165.432 107.056 164.709C108.706 163.274 110.422 161.929 112.026 160.447L114.471 158.274L116.853 156.033C120.017 153.034 123.06 149.916 125.983 146.68C128.926 143.467 131.751 140.149 134.509 136.775C140.039 130.01 145.188 122.943 149.932 115.605C152.312 111.929 154.596 108.185 156.783 104.372C158.974 100.563 161.071 96.6819 162.98 92.7043L163.41 92.8572C160.827 101.396 157.345 109.637 153.023 117.441C148.757 125.305 143.832 132.794 138.303 139.826C132.714 146.832 126.51 153.323 119.763 159.22L117.231 161.423L114.627 163.541C112.903 164.965 111.099 166.291 109.295 167.61C107.488 168.925 105.611 170.145 103.752 171.378C101.837 172.532 99.973 173.756 98.0269 174.846C96.0831 175.94 94.1649 177.066 92.1825 178.08C90.2175 179.119 88.2582 180.167 86.2503 181.139C82.2512 183.206 77.9858 184.711 73.5752 185.61C71.2231 186.107 68.7749 185.86 66.569 184.904C65.4302 184.332 64.4449 183.495 63.6957 182.464C62.9913 181.444 62.4533 180.319 62.1021 179.13C61.4797 176.85 61.2065 174.489 61.2918 172.128C61.3541 169.838 61.5837 167.555 61.9787 165.299C62.7848 160.864 63.967 156.507 65.5124 152.273C66.9931 148.048 68.6856 143.92 70.5229 139.865C71.4227 137.83 72.401 135.832 73.3858 133.84C74.3625 131.844 75.3924 129.875 76.4527 127.924C78.5655 124.017 80.7928 120.176 83.2589 116.472L83.6609 116.688ZM30.008 62.792C36.2248 61.8559 42.4582 61.1445 48.6975 60.5121C54.9359 59.8655 61.184 59.3521 67.4341 58.8645C73.6873 58.4195 79.9427 58.003 86.2079 57.7191C92.4721 57.421 98.7423 57.2038 105.029 57.2129C98.8128 58.1518 92.5793 58.8644 86.34 59.4962C80.1016 60.1422 73.8534 60.6555 67.6031 61.1404C61.3496 61.5826 55.0943 61.9991 48.829 62.2823C42.5648 62.5798 36.2947 62.7983 30.008 62.792Z" fill="white"/>
<path d="M106.362 167.583C105.468 159.65 104.608 151.705 103.838 143.75L103.543 140.767L103.395 139.276C103.381 139.16 103.376 139.009 103.353 138.921C103.326 138.85 103.304 138.778 103.287 138.704C103.213 138.505 103.128 138.309 103.033 138.119C102.152 136.449 100.996 134.778 99.9233 133.11C97.7345 129.772 95.6233 126.35 93.7364 122.787C92.8028 120.999 91.9232 119.176 91.1544 117.296C90.3938 115.391 89.7562 113.494 89.0957 111.622C87.7693 107.861 86.4545 104.098 85.1888 100.317L83.2683 94.6525L82.7881 93.2365C82.6009 92.7006 82.4754 92.1451 82.4141 91.5807C82.2803 90.4329 82.442 89.2699 82.8839 88.2022C83.3237 87.0658 84.16 86.1272 85.2381 85.5603C86.3526 85.0706 87.6107 85.0201 88.7608 85.419C90.7387 86.1615 92.5436 87.3016 94.0642 88.769L92.8775 89.436C92.6029 87.5098 92.4268 85.5708 92.3496 83.6267C92.3122 82.6565 92.3061 81.6755 92.3451 80.7044C92.4274 79.7253 92.4666 78.7302 92.6316 77.7586C92.7736 76.7238 93.1427 75.7332 93.7126 74.8581C94.0526 74.3666 94.5543 74.0102 95.1301 73.8513C95.6831 73.7377 96.2562 73.7693 96.7934 73.943C98.7322 74.6026 100.359 75.9555 101.362 77.742L101.018 77.5541H101.029L101.252 77.5554L101.37 77.7382C102.034 78.8017 102.634 79.9031 103.168 81.0369C103.416 81.5761 103.707 82.0943 104.038 82.5867C104.243 82.8289 104.24 82.8255 104.53 82.8424C104.621 82.8516 104.713 82.8327 104.793 82.7882C104.874 82.7437 104.938 82.6757 104.979 82.5934C105.18 82.0762 105.261 81.5198 105.215 80.9666C105.199 80.3601 105.151 79.7547 105.072 79.1531C104.917 77.9371 104.678 76.7333 104.356 75.5505C104.028 74.3463 103.763 73.1255 103.563 71.8934C103.336 70.6332 103.319 69.3441 103.512 68.0782C103.632 67.422 103.876 66.7945 104.229 66.2287C104.601 65.6567 105.108 65.1854 105.706 64.8568C106.885 64.2791 108.197 64.0261 109.507 64.1236L109.44 64.1267C109.998 64.0729 110.561 64.0915 111.115 64.182C111.663 64.2705 112.199 64.4222 112.713 64.6341C113.751 65.0693 114.65 65.7797 115.315 66.6888L115.273 66.6403C115.359 66.7317 115.41 66.8515 115.414 66.9773L115.406 68.8191L114.562 67.1801L114.551 67.1588L114.541 67.1383L114.523 67.0866C113.011 63.0766 111.992 58.8975 111.489 54.6413C111.383 53.5386 111.398 52.4276 111.535 51.3283C111.637 50.1024 112.168 48.9518 113.034 48.0788C113.539 47.641 114.157 47.3536 114.818 47.2493C115.458 47.1744 116.107 47.2405 116.718 47.443C117.811 47.8531 118.81 48.4802 119.655 49.2865C121.242 50.7952 122.636 52.4942 123.807 54.3448C124.987 56.1428 126.071 58.0019 127.055 59.9143C129.104 63.7065 130.721 67.7172 131.876 71.8707C132.975 75.9833 134.014 80.0582 135.425 83.9907C136.848 87.8744 138.565 91.7823 141.297 94.6146C142.564 96.0043 144.263 96.9256 146.119 97.2294C147.071 97.3287 148.034 97.2897 148.975 97.1133C149.979 96.9749 150.972 96.771 151.949 96.5029C153.908 95.9718 155.798 95.2096 157.577 94.2322C159.338 93.27 160.964 92.0803 162.414 90.6937L163.58 89.5359L164.201 90.9527C164.873 92.5443 165.282 94.2352 165.411 95.9586C165.551 97.6296 165.491 99.3114 165.232 100.968C164.683 104.246 163.498 107.385 161.743 110.207C160.872 111.64 159.811 112.949 158.591 114.1C157.35 115.204 155.994 116.171 154.546 116.985C153.122 117.786 151.663 118.451 150.326 119.198C149.02 119.83 147.902 120.795 147.086 121.995C146.405 123.295 146.044 124.74 146.035 126.208C145.931 127.77 145.872 129.345 145.853 130.926C145.814 134.086 145.875 137.257 145.987 140.426C146.109 143.595 146.232 146.767 146.437 149.934C146.661 153.095 146.836 156.279 147.368 159.394L147.158 159.443C146.48 156.316 146.165 153.15 145.798 149.989C145.464 146.825 145.158 143.656 144.95 140.479C144.739 137.303 144.58 134.122 144.521 130.928C144.491 129.331 144.504 127.728 144.559 126.119C144.531 124.401 144.919 122.702 145.69 121.167C146.626 119.703 147.931 118.511 149.473 117.711C150.895 116.885 152.318 116.205 153.647 115.422C154.955 114.654 156.178 113.748 157.294 112.721C158.367 111.669 159.294 110.477 160.049 109.177C161.609 106.559 162.644 103.661 163.097 100.646C163.323 99.1602 163.371 97.6528 163.241 96.1557C163.125 94.7057 162.786 93.2823 162.234 91.9363L164.021 92.1952C160.801 95.2897 156.852 97.5188 152.54 98.675C151.475 98.9716 150.392 99.1985 149.297 99.3543C148.738 99.4148 148.226 99.5197 147.628 99.5417L146.73 99.5687C146.43 99.5509 146.129 99.5162 145.829 99.4879C143.461 99.1369 141.287 97.9784 139.674 96.2084C136.531 92.8504 134.856 88.7367 133.406 84.7037C131.996 80.6366 130.984 76.473 129.937 72.3878C129.67 71.37 129.404 70.3568 129.082 69.3964C128.754 68.4172 128.383 67.4415 127.997 66.4713C127.222 64.5307 126.366 62.6139 125.434 60.7399C124.512 58.8652 123.493 57.0404 122.38 55.2732C121.311 53.5206 120.039 51.8995 118.593 50.443C117.922 49.7604 117.123 49.2176 116.241 48.8459C115.849 48.703 115.43 48.6442 115.014 48.6733C114.621 48.7258 114.251 48.885 113.943 49.1334C113.305 49.7793 112.909 50.6254 112.822 51.5292C112.671 52.5316 112.63 53.5476 112.7 54.5589C113.093 58.7425 113.995 62.8626 115.385 66.8277L115.356 66.7559L115.367 66.7775L114.515 66.9802C114.513 67.0349 114.524 67.0893 114.544 67.1399C114.565 67.1905 114.596 67.2363 114.635 67.2744L114.593 67.2256C114.04 66.4228 113.277 65.7879 112.387 65.3905C111.494 64.9977 110.517 64.8311 109.544 64.9055L109.501 64.9096L109.476 64.9087C108.307 64.8075 107.132 65.0167 106.07 65.5151C105.577 65.7964 105.154 66.1857 104.833 66.6539C104.512 67.122 104.302 67.6568 104.217 68.2182C104.03 69.4036 104.038 70.6116 104.242 71.7943C104.428 73.0079 104.678 74.2108 104.99 75.398C105.32 76.6037 105.575 77.8289 105.752 79.0664C105.842 79.6911 105.899 80.3202 105.923 80.9509C105.986 81.6349 105.88 82.3241 105.613 82.9568C105.502 83.1408 105.348 83.2945 105.164 83.4043C104.98 83.5142 104.771 83.5768 104.557 83.5864C104.343 83.5961 104.129 83.5526 103.936 83.4598C103.743 83.367 103.575 83.2278 103.449 83.0546C103.078 82.5273 102.753 81.9694 102.477 81.3871C101.943 80.2875 101.345 79.2201 100.687 78.1902L101.029 78.3741L101.018 78.3742L100.796 78.3755L100.673 78.1861C99.7767 76.5888 98.3057 75.3931 96.5595 74.8424C96.2041 74.6889 95.8058 74.6662 95.4352 74.7783C95.0646 74.8905 94.7456 75.1303 94.5348 75.4552C94.088 76.2145 93.8101 77.0613 93.7199 77.9378C93.5923 78.8628 93.5875 79.794 93.5349 80.7269C93.5255 81.6744 93.5599 82.6137 93.6249 83.5598C93.7573 85.449 93.984 87.3304 94.3044 89.1969L94.6352 91.1207L93.1176 89.8639C91.7242 88.59 90.0897 87.6086 88.3107 86.9778C87.5528 86.7233 86.7268 86.7641 85.9976 87.092C85.3162 87.5035 84.7977 88.1379 84.5301 88.888C84.2142 89.6769 84.1052 90.5336 84.2136 91.3766C84.264 91.8045 84.3633 92.2252 84.5095 92.6305L85.0034 94.0438L86.9791 99.6969C88.3108 103.461 89.5933 107.242 90.8644 111.026C91.5081 112.924 92.1233 114.817 92.8223 116.625C93.5424 118.447 94.3776 120.231 95.2703 121.989C97.0655 125.507 99.1483 128.883 101.239 132.276C102.273 133.993 103.358 135.636 104.288 137.523C104.409 137.781 104.513 138.047 104.6 138.319C104.641 138.488 104.677 138.66 104.708 138.83C104.731 138.985 104.729 139.087 104.741 139.218L104.846 140.708L105.057 143.689C105.635 151.637 106.123 159.594 106.577 167.564L106.362 167.583Z" fill="white"/>
<path d="M119.368 78.6115L114.463 67.1727L115.472 66.7903L119.368 78.6115Z" fill="white"/>
<path d="M279.206 39.5347C275.226 41.2219 271.079 42.6404 266.926 43.9419C262.751 45.23 258.508 46.2858 254.216 47.1043C249.901 47.9882 245.507 48.4263 241.103 48.4116C238.868 48.3912 236.64 48.1625 234.448 47.7284C232.189 47.2978 230.027 46.4605 228.068 45.2572L228.163 45.312C224.868 43.6668 221.555 42.0564 218.278 40.3748L217.185 39.8137L217.843 38.8661C217.922 38.7389 218.021 38.6252 218.136 38.5295C218.192 38.4774 218.251 38.4297 218.314 38.387C218.413 38.3186 218.53 38.2292 218.618 38.183C218.8 38.083 218.994 37.9595 219.167 37.8854C219.524 37.7093 219.875 37.5584 220.222 37.4267C220.919 37.155 221.61 36.9141 222.304 36.7082C223.689 36.2688 225.082 35.9366 226.475 35.6105C229.26 34.9677 232.055 34.4239 234.86 33.9793C237.662 33.508 240.469 33.0943 243.278 32.7127C246.086 32.3146 248.9 31.9831 251.712 31.6307L251.331 31.8405L257.081 25.2561C259 23.0585 260.85 20.8274 262.835 18.6542C266.844 14.3542 271.488 10.6952 276.605 7.80485C279.173 6.37598 281.841 5.13568 284.589 4.09373C287.348 3.0802 290.171 2.25128 293.041 1.61243C298.789 0.149454 304.745 -0.322951 310.653 0.215491C316.632 0.95494 322.332 3.17809 327.235 6.68286C332.111 10.2393 336.084 14.8931 338.832 20.2687C340.192 22.9544 341.253 25.7819 341.995 28.7001L342.476 30.9059C342.61 31.6365 342.739 32.3616 342.85 33.094C343.083 34.5549 343.272 36.024 343.418 37.5013C343.734 40.4667 343.806 43.4531 343.634 46.4303C343.474 49.4532 342.923 52.4425 341.995 55.3238L341.622 56.4441L340.495 56.1051L325.266 51.5243L309.996 47.0759C304.906 45.5934 299.803 44.1548 294.678 42.8116C292.12 42.1203 289.553 41.4685 286.977 40.8561C285.685 40.5879 284.399 40.2418 283.097 40.0367L281.147 39.687L279.206 39.5347ZM279.153 39.3012L281.186 39.3223L283.172 39.5494C284.502 39.6897 285.8 39.9684 287.117 40.1715C289.733 40.6519 292.342 41.1658 294.937 41.7393C300.125 42.8914 305.288 44.1388 310.44 45.4301C315.593 46.7179 320.716 48.1117 325.842 49.4959C330.964 50.8974 336.087 52.282 341.188 53.7732L339.689 54.5545C341.4 49.2434 341.388 43.4208 340.873 37.7519C340.736 36.3282 340.555 34.9072 340.33 33.489C340.224 32.7806 340.099 32.0706 339.971 31.368L339.524 29.3026C338.859 26.5607 337.899 23.8994 336.659 21.3656C334.143 16.2852 330.469 11.8672 325.934 8.46794C321.358 5.09538 316.028 2.89314 310.407 2.053C304.702 1.37847 298.924 1.65574 293.309 2.87348C287.612 3.88966 282.112 5.80491 277.016 8.54765C271.92 11.3117 267.317 14.9017 263.394 19.1718C259.579 23.5288 255.944 28.1199 252.258 32.6239L252.119 32.7944L251.877 32.8339C249.087 33.2886 246.295 33.7261 243.514 34.2223C240.731 34.7024 237.953 35.2142 235.193 35.781C232.43 36.3415 229.678 36.941 226.96 37.6142C225.603 37.9541 224.253 38.3248 222.939 38.7373C222.277 38.9359 221.632 39.1657 221.013 39.4094C220.698 39.5301 220.401 39.6599 220.123 39.7989C219.97 39.8644 219.869 39.9389 219.74 40.0063C219.692 40.0342 219.647 40.0647 219.603 40.0976C219.578 40.1133 219.558 40.1275 219.573 40.1187C219.588 40.0932 219.533 40.1814 219.679 39.9697L219.244 38.4613C222.542 40.101 225.804 41.812 229.083 43.4881L229.135 43.5148L229.179 43.543C232.583 45.7622 236.935 46.4016 241.145 46.5528C243.283 46.6051 245.421 46.5418 247.552 46.3633C249.692 46.2089 251.832 45.9502 253.962 45.6178C258.229 44.9791 262.45 44.0101 266.653 42.9683C270.862 41.9106 275.001 40.681 279.153 39.3012Z" fill="white"/>
<path d="M305.51 6.65097C303.466 9.05397 301.372 11.3897 299.268 13.7127L292.963 20.671C290.861 22.9862 288.776 25.3159 286.709 27.6601C284.656 30.0187 282.625 32.3912 280.608 34.8191C282.106 32.0381 283.823 29.3812 285.743 26.8738C287.632 24.3447 289.684 21.9502 291.781 19.5994C293.905 17.2735 296.096 15.0119 298.38 12.846C300.648 10.6587 303.028 8.59087 305.51 6.65097ZM316.426 7.80069C318.116 10.8702 319.611 14.0436 320.902 17.3019C322.214 20.5513 323.36 23.8641 324.34 27.2402C325.311 30.6184 326.069 34.0545 326.608 37.5282C327.145 41.0052 327.294 44.531 327.054 48.0409C326.676 44.5843 326.118 41.1497 325.383 37.7511C324.637 34.3673 323.76 31.0148 322.807 27.6812C321.866 24.3428 320.8 21.0381 319.736 17.7269C318.641 14.4262 317.562 11.1125 316.426 7.80069ZM251.794 32.2322C253.68 32.2583 255.564 32.3903 257.435 32.6276C259.301 32.8376 261.15 33.1395 262.996 33.4592C264.837 33.8082 266.674 34.177 268.495 34.6372C270.33 35.0739 272.139 35.6144 273.913 36.2562C272.026 36.2321 270.143 36.1009 268.272 35.8632C266.406 35.6528 264.557 35.3509 262.711 35.0293C260.871 34.6783 259.033 34.3095 257.213 33.8489C255.378 33.4118 253.569 32.8721 251.794 32.2322V32.2322ZM251.794 46.7291C251.824 48.332 251.74 49.9321 251.626 51.5347C251.523 53.1523 251.292 54.7592 250.936 56.3403C250.76 57.1946 250.438 58.012 249.985 58.7569C249.577 59.3666 249.179 60.0791 248.784 60.7576C247.986 62.1281 247.216 63.5226 246.448 64.9159C244.894 67.6944 243.366 70.4866 241.864 73.2926C241.127 74.7007 240.364 76.0958 239.658 77.5122C239.303 78.2191 238.966 78.9325 238.637 79.6406C238.476 79.9956 238.322 80.3517 238.19 80.7029C238.131 80.8749 238.06 81.0558 238.025 81.2094C238.003 81.2742 237.988 81.3413 237.981 81.4095C237.979 81.4223 237.967 81.4866 237.968 81.4583C237.968 81.4315 237.961 81.4051 237.948 81.3816C237.935 81.3582 237.916 81.3384 237.893 81.3243L237.6 81.1185C238.145 81.2479 238.705 81.3007 239.264 81.2753C239.861 81.2516 240.455 81.1715 241.038 81.0363C241.631 80.8972 242.215 80.7214 242.786 80.51C243.363 80.2899 243.927 80.0383 244.477 79.7565L244.558 79.7158L244.611 79.7264C245.172 79.8326 245.697 80.076 246.141 80.4351C246.564 80.7922 246.867 81.2719 247.007 81.8082C246.797 81.3229 246.443 80.9143 245.992 80.6385C245.563 80.3674 245.074 80.2049 244.568 80.1649L244.702 80.1349C243.643 80.8696 242.486 81.4518 241.265 81.8645C240.639 82.0669 239.995 82.2096 239.341 82.2906C238.65 82.3864 237.947 82.3631 237.264 82.222L237.067 82.1783L236.971 82.016C236.894 81.8856 236.841 81.7429 236.814 81.5942C236.805 81.5117 236.804 81.4285 236.812 81.3458C236.815 81.2146 236.832 81.0841 236.863 80.9565C236.907 80.7393 236.962 80.5246 237.028 80.3131C237.153 79.9088 237.293 79.5222 237.438 79.1403C237.729 78.3776 238.057 77.6395 238.39 76.906C239.06 75.4418 239.753 73.9951 240.495 72.5745C241.954 69.7207 243.513 66.9261 245.119 64.1571C245.935 62.7792 246.765 61.4111 247.622 60.0514C248.059 59.3688 248.487 58.7125 249.006 58.023C249.408 57.4158 249.711 56.7489 249.904 56.0471C250.758 52.9907 251.389 49.8766 251.794 46.7291V46.7291Z" fill="white"/>
<path d="M255.816 85.79C251.22 78.7 244.589 81.8081 244.589 81.8081C244.589 81.8081 242.028 117.024 257.731 117.982C269.681 118.711 279.964 111.45 287.194 103.63C290.939 99.5599 293.309 94.4137 293.968 88.9206C294.949 80.8997 296.422 68.7823 296.797 65.2866C297.371 59.9213 299.544 45.8729 307.329 46.729C307.329 46.729 323.607 46.8911 315.181 75.0593C315.181 75.0593 312.883 92.6883 327.82 90.5805C327.82 90.5805 324.756 81.766 328.777 75.0593C332.799 68.3526 338.086 59.8737 337.836 54.0531C337.836 54.0531 285.115 38.4599 279.179 39.418C282.832 41.348 285.771 44.3996 287.564 48.1245C289.356 51.8494 289.907 56.0513 289.137 60.1129C287.385 71.5036 278.961 86.7895 275.051 93.4178C274.432 94.4751 273.537 95.3445 272.463 95.9336C271.389 96.5228 270.175 96.8096 268.951 96.7637C266.687 96.6726 264.089 96.3409 262.853 95.371C260.412 93.4548 255.816 85.79 255.816 85.79Z" fill="white"/>
<path d="M255.252 52.0081C256.372 51.1457 257.653 50.5171 259.019 50.1595C260.41 49.7681 261.863 49.6468 263.299 49.8022C264.767 49.9779 266.164 50.5349 267.35 51.4177C268.504 52.2795 269.389 53.4509 269.903 54.796C268.935 53.8859 267.853 53.1045 266.685 52.4711C265.565 51.8987 264.351 51.5312 263.101 51.3857C261.822 51.2439 260.531 51.2416 259.251 51.3789C257.943 51.5157 256.621 51.7305 255.252 52.0081ZM300.435 71.6101C303.003 72.6175 305.974 72.5038 307.875 70.8174C308.834 69.967 309.599 68.9209 310.12 67.7495C310.68 66.5453 311.129 65.2921 311.461 64.0058C312.201 61.4121 312.639 58.7412 312.765 56.0467C312.824 54.6942 312.79 53.3393 312.664 51.9915C312.6 51.3139 312.502 50.64 312.37 49.9725C312.31 49.635 312.225 49.3063 312.135 48.9751C312.065 48.6401 311.929 48.3225 311.734 48.041C312.215 48.5574 312.577 49.1733 312.793 49.8451C313.05 50.5014 313.264 51.1734 313.436 51.857C313.762 53.2314 313.954 54.6341 314.011 56.0456C314.113 58.8778 313.771 61.7086 312.997 64.4347C312.23 67.0831 311.113 70.0145 308.625 71.8062C307.401 72.6832 305.91 73.1072 304.408 73.0053C302.982 72.9108 301.608 72.4285 300.435 71.6101V71.6101ZM281.858 108.744C282.797 109.318 283.665 110 284.444 110.777C285.228 111.533 285.95 112.35 286.604 113.22C287.267 114.098 287.839 115.042 288.31 116.037C288.859 117.04 289.081 118.189 288.945 119.324C288.485 118.376 287.913 117.487 287.241 116.676C286.609 115.844 285.947 115.026 285.326 114.175C284.694 113.331 284.079 112.466 283.491 111.571C282.878 110.67 282.333 109.725 281.858 108.744V108.744ZM327.82 90.5805C328.834 92.151 329.759 93.7782 330.588 95.4539C331.008 96.2552 331.422 97.0462 331.889 97.7999C332.35 98.5935 332.914 99.3231 333.565 99.9699C332.552 99.8286 331.619 99.3403 330.925 98.5882C330.215 97.8918 329.625 97.084 329.176 96.1967C328.726 95.3351 328.379 94.423 328.143 93.4796C327.885 92.536 327.776 91.5578 327.82 90.5805V90.5805Z" fill="white"/>
<path d="M351.187 86.5514C351.187 86.5514 332.718 87.9016 329.598 95.2791L330.159 96.3376L332.221 95.2791C342.131 90.3427 347.733 96.8993 340.846 98.0551C333.948 99.2 292.874 118.027 292.874 118.027C275.063 123.071 264.624 150.173 264.624 150.173C267.495 148.941 270.421 147.839 273.325 146.662C276.304 145.701 279.262 144.664 282.273 143.81C288.321 142.102 294.487 140.849 300.722 140.062C306.967 139.258 313.276 139.063 319.559 139.479C321.124 139.652 322.689 139.749 324.254 139.976C325.798 140.246 327.363 140.43 328.896 140.797C331.979 141.403 334.982 142.364 337.845 143.659C334.868 142.768 331.814 142.157 328.723 141.834C327.191 141.596 325.636 141.521 324.103 141.38C322.56 141.283 321.016 141.229 319.472 141.153C313.291 141.059 307.112 141.41 300.981 142.201L296.382 142.795L291.805 143.605L289.517 143.983L287.25 144.48C285.728 144.815 284.217 145.139 282.695 145.452C279.672 146.154 276.671 146.954 273.638 147.677C270.637 148.498 267.657 149.406 264.624 150.173C217.904 157.842 172.318 186.585 169.263 185.818C166.197 185.051 163.509 160.909 163.509 154.698C163.509 148.498 162.365 136.757 153.168 136.757C143.982 136.757 145.126 144.804 145.126 144.804C162.365 149.406 122.532 152.862 110.658 154.385C98.7838 155.919 105.293 151.328 105.293 151.328C105.293 151.328 101.849 147.645 98.1577 152.225C97.0055 153.702 96.2288 155.437 95.8941 157.281C95.5594 159.125 95.6768 161.022 96.2362 162.81C97.4128 166.742 99.1508 172.705 100.317 177.382C102.238 185.051 109.125 240.236 111.424 245.604C113.724 250.962 161.21 265.144 262.325 257.864C270.518 256.579 278.679 255.218 286.84 253.857C294.99 252.463 303.14 251.037 311.225 249.385C315.273 248.575 319.321 247.732 323.326 246.771C327.353 245.853 331.347 244.834 335.308 243.714C339.272 242.6 343.178 241.288 347.01 239.782C350.89 238.385 354.505 236.336 357.697 233.723C356.29 235.263 354.677 236.6 352.904 237.698C351.15 238.831 349.325 239.852 347.442 240.754C343.66 242.516 339.774 244.042 335.805 245.324C327.88 247.843 319.818 249.906 311.657 251.502C303.507 253.122 295.317 254.462 287.088 255.52C278.862 256.611 270.604 257.41 262.325 257.864C262.325 257.864 258.644 280.256 256.722 300.401H400.746C400.595 280.731 400.563 254.667 401.167 231.228C402.311 186.012 401.167 164.733 401.167 164.733C399.097 164.504 397.051 164.085 395.057 163.48C393.06 162.908 391.107 162.227 389.153 161.525C385.256 160.121 381.456 158.479 377.678 156.794C373.921 155.077 370.208 153.283 366.548 151.35C362.889 149.438 359.273 147.418 355.775 145.193C359.672 146.619 363.483 148.207 367.272 149.838C371.061 151.447 374.806 153.154 378.574 154.828L389.79 159.97C393.557 161.633 397.238 163.426 401.167 164.733C401.167 164.733 420.123 173.364 421.85 151.512C423.566 129.671 402.884 82.5332 351.187 86.5514ZM359.143 157.518C361.048 159.317 362.71 161.358 364.087 163.588C364.767 164.701 365.35 165.878 365.965 167.045C366.494 168.244 366.926 169.475 367.423 170.696C367.657 171.307 367.845 171.935 367.984 172.575L368.481 174.476C368.815 175.739 369.061 177.024 369.215 178.321L369.474 180.266L369.603 181.238L369.646 182.21L369.776 186.109L369.808 187.081L369.744 188.054L369.603 189.998C369.517 191.294 369.431 192.579 369.29 193.865C368.858 196.414 368.448 198.963 367.898 201.48C367.196 203.964 366.516 206.438 365.739 208.879C366.052 206.319 366.451 203.802 366.851 201.286C367.153 198.758 367.326 196.22 367.617 193.703L367.714 189.912L367.768 188.021L367.801 187.081L367.736 186.142L367.541 182.372L367.498 181.432L367.358 180.503L367.077 178.645C366.444 173.68 364.942 168.865 362.641 164.42C361.449 162.217 360.023 160.149 358.387 158.252C356.756 156.311 354.846 154.622 352.72 153.24C355.104 154.261 357.281 155.711 359.143 157.518V157.518ZM386.357 113.771C385.584 115.398 384.261 116.699 382.622 117.444C381.811 117.814 380.959 118.09 380.085 118.265C379.212 118.389 378.333 118.464 377.451 118.492C376.577 118.448 375.692 118.448 374.828 118.34L372.259 117.919C371.406 117.746 370.586 117.498 369.744 117.282L367.315 116.623C365.731 116.209 364.118 115.92 362.489 115.759C359.19 115.451 355.87 115.44 352.569 115.726C345.898 116.329 339.287 117.478 332.804 119.161C329.544 119.982 326.284 120.868 323.056 121.829C319.807 122.747 316.612 123.806 313.395 124.875C319.511 121.927 325.853 119.474 332.361 117.541C338.884 115.527 345.599 114.199 352.396 113.577C355.837 113.303 359.296 113.354 362.727 113.728C364.454 113.95 366.162 114.308 367.833 114.797L372.637 116.277L375.044 116.796C375.853 116.936 376.663 116.968 377.473 117.077C378.282 117.131 379.092 117.066 379.891 117.044C380.683 116.938 381.461 116.746 382.212 116.472C383.739 115.946 385.029 114.893 385.849 113.501C386.274 112.795 386.594 112.031 386.799 111.233C387.042 110.426 387.173 109.591 387.188 108.748C387.376 110.467 387.088 112.205 386.357 113.771H386.357Z" fill="white"/>
<path d="M196.068 300.404C217.324 299.787 238.581 299.373 259.837 299.163C270.465 299.016 281.094 298.983 291.722 298.896L323.607 298.808L355.491 298.892C366.119 298.981 376.748 299.01 387.376 299.158C408.633 299.367 429.889 299.782 451.145 300.404C429.889 301.025 408.632 301.44 387.376 301.65C376.748 301.799 366.119 301.827 355.491 301.916L323.607 302L291.722 301.912C281.094 301.825 270.465 301.793 259.837 301.645C238.581 301.435 217.324 301.022 196.068 300.404ZM258.832 63.5752C262.999 63.5752 263.006 57.0943 258.832 57.0943C254.664 57.0943 254.657 63.5752 258.832 63.5752Z" fill="white"/>
</svg>
